<svg width="148" height="66" viewBox="0 0 148 66" fill="none" xmlns="http://www.w3.org/2000/svg">
<path d="M36.8864 39.2841C35.3333 39.2841 33.9034 38.8769 32.5966 38.0625C31.2992 37.2481 30.2576 36.0123 29.4716 34.3551C28.6951 32.6979 28.3068 30.6098 28.3068 28.0909C28.3068 25.4583 28.714 23.3182 29.5284 21.6705C30.3523 20.0227 31.4129 18.8153 32.7102 18.0483C34.017 17.2812 35.3902 16.8977 36.8295 16.8977C37.9091 16.8977 38.8561 17.0871 39.6705 17.4659C40.4848 17.8352 41.1667 18.3324 41.7159 18.9574C42.2652 19.5729 42.6818 20.25 42.9659 20.9886H43.0795V9.90909H50.9205V39H43.1364V35.4205H42.9659C42.6629 36.1591 42.2273 36.822 41.6591 37.4091C41.1004 37.9867 40.4186 38.446 39.6136 38.7869C38.8182 39.1184 37.9091 39.2841 36.8864 39.2841ZM39.7841 33.2614C40.5038 33.2614 41.1193 33.053 41.6307 32.6364C42.1515 32.2102 42.5492 31.6136 42.8239 30.8466C43.108 30.0701 43.25 29.1515 43.25 28.0909C43.25 27.0114 43.108 26.0881 42.8239 25.321C42.5492 24.5445 42.1515 23.9527 41.6307 23.5455C41.1193 23.1288 40.5038 22.9205 39.7841 22.9205C39.0644 22.9205 38.4489 23.1288 37.9375 23.5455C37.4356 23.9527 37.0473 24.5445 36.7727 25.321C36.5076 26.0881 36.375 27.0114 36.375 28.0909C36.375 29.1705 36.5076 30.0985 36.7727 30.875C37.0473 31.642 37.4356 32.2339 37.9375 32.6506C38.4489 33.0578 39.0644 33.2614 39.7841 33.2614ZM65.2812 39.3977C62.9138 39.3977 60.8873 38.929 59.2017 37.9915C57.5161 37.0445 56.2235 35.7282 55.3239 34.0426C54.4242 32.3475 53.9744 30.3826 53.9744 28.1477C53.9744 25.9129 54.4242 23.9527 55.3239 22.267C56.2235 20.572 57.5161 19.2557 59.2017 18.3182C60.8873 17.3712 62.9138 16.8977 65.2812 16.8977C67.6487 16.8977 69.6752 17.3712 71.3608 18.3182C73.0464 19.2557 74.339 20.572 75.2386 22.267C76.1383 23.9527 76.5881 25.9129 76.5881 28.1477C76.5881 30.3826 76.1383 32.3475 75.2386 34.0426C74.339 35.7282 73.0464 37.0445 71.3608 37.9915C69.6752 38.929 67.6487 39.3977 65.2812 39.3977ZM65.3381 33.6023C66.0009 33.6023 66.5739 33.3797 67.0568 32.9347C67.5398 32.4896 67.9138 31.8551 68.179 31.0312C68.4441 30.2074 68.5767 29.2273 68.5767 28.0909C68.5767 26.9451 68.4441 25.965 68.179 25.1506C67.9138 24.3267 67.5398 23.6922 67.0568 23.2472C66.5739 22.8021 66.0009 22.5795 65.3381 22.5795C64.6373 22.5795 64.036 22.8021 63.5341 23.2472C63.0322 23.6922 62.6487 24.3267 62.3835 25.1506C62.1184 25.965 61.9858 26.9451 61.9858 28.0909C61.9858 29.2273 62.1184 30.2074 62.3835 31.0312C62.6487 31.8551 63.0322 32.4896 63.5341 32.9347C64.036 33.3797 64.6373 33.6023 65.3381 33.6023Z" fill="#86198F"/>
<path d="M87.554 9.90909V39H79.6562V9.90909H87.554ZM104.422 17.1818V22.8636H90.0469V17.1818H104.422ZM92.831 11.9545H100.672V31.983C100.672 32.286 100.724 32.5417 100.828 32.75C100.932 32.9489 101.093 33.1004 101.311 33.2045C101.529 33.2992 101.808 33.3466 102.149 33.3466C102.386 33.3466 102.661 33.3182 102.973 33.2614C103.295 33.2045 103.532 33.1572 103.683 33.1193L104.82 38.6307C104.469 38.7348 103.967 38.8627 103.314 39.0142C102.67 39.1657 101.903 39.2652 101.013 39.3125C99.2135 39.4072 97.7031 39.2225 96.4815 38.7585C95.2599 38.285 94.3414 37.5417 93.7259 36.5284C93.1103 35.5152 92.812 34.2462 92.831 32.7216V11.9545Z" fill="#F0ABFC"/>
<path d="M32.5966 38.0625L32.0649 38.9095L32.0677 38.9112L32.5966 38.0625ZM29.4716 34.3551L28.5661 34.7794L28.5681 34.7836L29.4716 34.3551ZM29.5284 21.6705L28.634 21.2232L28.6319 21.2274L29.5284 21.6705ZM32.7102 18.0483L32.204 17.1859L32.2013 17.1875L32.7102 18.0483ZM39.6705 17.4659L39.2487 18.3727L39.2575 18.3766L39.6705 17.4659ZM41.7159 18.9574L40.9647 19.6175L40.9698 19.6232L41.7159 18.9574ZM42.9659 20.9886L42.0326 21.3476L42.2791 21.9886H42.9659V20.9886ZM43.0795 20.9886V21.9886H44.0795V20.9886H43.0795ZM43.0795 9.90909V8.90909H42.0795V9.90909H43.0795ZM50.9205 9.90909H51.9205V8.90909H50.9205V9.90909ZM50.9205 39V40H51.9205V39H50.9205ZM43.1364 39H42.1364V40H43.1364V39ZM43.1364 35.4205H44.1364V34.4205H43.1364V35.4205ZM42.9659 35.4205V34.4205H42.2953L42.0407 35.0409L42.9659 35.4205ZM41.6591 37.4091L40.9405 36.7137L40.9403 36.7139L41.6591 37.4091ZM39.6136 38.7869L39.9983 39.71L40.0036 39.7077L39.6136 38.7869ZM41.6307 32.6364L42.2624 33.4116L42.2639 33.4103L41.6307 32.6364ZM42.8239 30.8466L41.8847 30.503L41.8824 30.5095L42.8239 30.8466ZM42.8239 25.321L41.8811 25.6544L41.8835 25.6614L41.8861 25.6683L42.8239 25.321ZM41.6307 23.5455L40.999 24.3207L41.0068 24.3271L41.0148 24.3333L41.6307 23.5455ZM37.9375 23.5455L38.5675 24.322L38.5692 24.3207L37.9375 23.5455ZM36.7727 25.321L35.8299 24.9876L35.8276 24.9943L36.7727 25.321ZM36.7727 30.875L35.8264 31.1981L35.8288 31.2051L35.8312 31.2121L36.7727 30.875ZM37.9375 32.6506L37.2987 33.42L37.3066 33.4265L37.3146 33.4328L37.9375 32.6506ZM36.8864 38.2841C35.5186 38.2841 34.2722 37.9284 33.1255 37.2138L32.0677 38.9112C33.5346 39.8254 35.1481 40.2841 36.8864 40.2841V38.2841ZM33.1283 37.2155C32.0216 36.5208 31.0958 35.4461 30.3751 33.9266L28.5681 34.7836C29.4194 36.5785 30.5769 37.9754 32.0649 38.9095L33.1283 37.2155ZM30.3771 33.9308C29.6816 32.4466 29.3068 30.5152 29.3068 28.0909H27.3068C27.3068 30.7045 27.7085 32.9493 28.5661 34.7794L30.3771 33.9308ZM29.3068 28.0909C29.3068 25.5502 29.7015 23.5771 30.4249 22.1135L28.6319 21.2274C27.7265 23.0593 27.3068 25.3665 27.3068 28.0909H29.3068ZM30.4228 22.1177C31.1799 20.6035 32.1209 19.5584 33.2192 18.9091L32.2013 17.1875C30.7048 18.0723 29.5246 19.4419 28.634 21.2232L30.4228 22.1177ZM33.2164 18.9107C34.3782 18.2288 35.5776 17.8977 36.8295 17.8977V15.8977C35.2027 15.8977 33.6559 16.3337 32.204 17.1859L33.2164 18.9107ZM36.8295 17.8977C37.7924 17.8977 38.5904 18.0664 39.2487 18.3726L40.0922 16.5592C39.1217 16.1078 38.0258 15.8977 36.8295 15.8977V17.8977ZM39.2575 18.3766C39.9524 18.6918 40.516 19.1069 40.9647 19.6175L42.4671 18.2973C41.8173 17.5579 41.0173 16.9787 40.0835 16.5552L39.2575 18.3766ZM40.9698 19.6232C41.4421 20.1525 41.7937 20.7265 42.0326 21.3476L43.8993 20.6297C43.57 19.7735 43.0883 18.9934 42.4621 18.2916L40.9698 19.6232ZM42.9659 21.9886H43.0795V19.9886H42.9659V21.9886ZM44.0795 20.9886V9.90909H42.0795V20.9886H44.0795ZM43.0795 10.9091H50.9205V8.90909H43.0795V10.9091ZM49.9205 9.90909V39H51.9205V9.90909H49.9205ZM50.9205 38H43.1364V40H50.9205V38ZM44.1364 39V35.4205H42.1364V39H44.1364ZM43.1364 34.4205H42.9659V36.4205H43.1364V34.4205ZM42.0407 35.0409C41.787 35.6593 41.4225 36.2156 40.9405 36.7137L42.3777 38.1045C43.032 37.4283 43.5387 36.6589 43.8911 35.8L42.0407 35.0409ZM40.9403 36.7139C40.4828 37.1868 39.9159 37.5729 39.2236 37.8661L40.0036 39.7077C40.9213 39.3191 41.7179 38.7867 42.3779 38.1043L40.9403 36.7139ZM39.229 37.8639C38.576 38.136 37.8013 38.2841 36.8864 38.2841V40.2841C38.0169 40.2841 39.0604 40.1008 39.9983 39.71L39.229 37.8639ZM39.7841 34.2614C40.7115 34.2614 41.5559 33.9872 42.2624 33.4116L40.999 31.8611C40.6827 32.1189 40.296 32.2614 39.7841 32.2614V34.2614ZM42.2639 33.4103C42.9522 32.8472 43.4424 32.0855 43.7653 31.1837L41.8824 30.5095C41.656 31.1417 41.3508 31.5733 40.9974 31.8624L42.2639 33.4103ZM43.763 31.1902C44.0969 30.2774 44.25 29.2372 44.25 28.0909H42.25C42.25 29.0659 42.119 29.8627 41.8847 30.503L43.763 31.1902ZM44.25 28.0909C44.25 26.9286 44.0977 25.8811 43.7616 24.9737L41.8861 25.6683C42.1182 26.295 42.25 27.0941 42.25 28.0909H44.25ZM43.7666 24.9876C43.4441 24.0756 42.9504 23.3079 42.2466 22.7576L41.0148 24.3333C41.3526 24.5974 41.6544 25.0134 41.8811 25.6544L43.7666 24.9876ZM42.2624 22.7702C41.5559 22.1946 40.7115 21.9205 39.7841 21.9205V23.9205C40.296 23.9205 40.6827 24.063 40.999 24.3207L42.2624 22.7702ZM39.7841 21.9205C38.8567 21.9205 38.0122 22.1946 37.3058 22.7702L38.5692 24.3207C38.8855 24.063 39.2721 23.9205 39.7841 23.9205V21.9205ZM37.3075 22.7689C36.6281 23.32 36.1494 24.0844 35.8299 24.9876L37.7155 25.6544C37.9453 25.0046 38.2431 24.5853 38.5675 24.322L37.3075 22.7689ZM35.8276 24.9943C35.5164 25.8947 35.375 26.9346 35.375 28.0909H37.375C37.375 27.0881 37.4988 26.2814 37.7179 25.6477L35.8276 24.9943ZM35.375 28.0909C35.375 29.2477 35.5165 30.2906 35.8264 31.1981L37.7191 30.5519C37.4987 29.9063 37.375 29.0932 37.375 28.0909H35.375ZM35.8312 31.2121C36.1514 32.1062 36.6286 32.8637 37.2987 33.42L38.5763 31.8812C38.2426 31.6041 37.9433 31.1779 37.7142 30.5379L35.8312 31.2121ZM37.3146 33.4328C38.0211 33.9954 38.8624 34.2614 39.7841 34.2614V32.2614C39.2664 32.2614 38.8767 32.1201 38.5604 31.8683L37.3146 33.4328ZM59.2017 37.9915L58.7119 38.8633L58.7156 38.8654L59.2017 37.9915ZM55.3239 34.0426L54.4406 34.5114L54.4416 34.5135L55.3239 34.0426ZM55.3239 22.267L56.2061 22.7379L56.2072 22.7358L55.3239 22.267ZM59.2017 18.3182L59.6878 19.1921L59.6915 19.19L59.2017 18.3182ZM71.3608 18.3182L70.871 19.19L70.8747 19.1921L71.3608 18.3182ZM75.2386 22.267L74.3553 22.7358L74.3564 22.7379L75.2386 22.267ZM75.2386 34.0426L76.1209 34.5135L76.1219 34.5114L75.2386 34.0426ZM71.3608 37.9915L71.8469 38.8654L71.8506 38.8633L71.3608 37.9915ZM67.0568 32.9347L67.7345 33.67L67.7345 33.67L67.0568 32.9347ZM68.179 31.0312L69.1309 31.3376L69.1309 31.3376L68.179 31.0312ZM68.179 25.1506L67.2271 25.4569L67.2281 25.4602L68.179 25.1506ZM67.0568 23.2472L67.7345 22.5118L67.7345 22.5118L67.0568 23.2472ZM62.3835 25.1506L63.3344 25.4602L63.3354 25.4569L62.3835 25.1506ZM62.3835 31.0312L63.3354 30.7249L63.3354 30.7249L62.3835 31.0312ZM65.2812 38.3977C63.0456 38.3977 61.1945 37.9555 59.6878 37.1176L58.7156 38.8654C60.5802 39.9024 62.782 40.3977 65.2812 40.3977V38.3977ZM59.6915 37.1196C58.1702 36.265 57.0147 35.0869 56.2061 33.5718L54.4416 34.5135C55.4323 36.3696 56.862 37.824 58.7119 38.8633L59.6915 37.1196ZM56.2072 33.5738C55.3959 32.0452 54.9744 30.2461 54.9744 28.1477H52.9744C52.9744 30.519 53.4526 32.6499 54.4406 34.5114L56.2072 33.5738ZM54.9744 28.1477C54.9744 26.0492 55.396 24.2558 56.2061 22.7379L54.4416 21.7962C53.4525 23.6495 52.9744 25.7766 52.9744 28.1477H54.9744ZM56.2072 22.7358C57.0158 21.2122 58.17 20.0363 59.6878 19.1921L58.7156 17.4443C56.8622 18.4751 55.4312 19.9317 54.4406 21.7983L56.2072 22.7358ZM59.6915 19.19C61.1974 18.344 63.0472 17.8977 65.2812 17.8977V15.8977C62.7805 15.8977 60.5772 16.3984 58.7119 17.4463L59.6915 19.19ZM65.2812 17.8977C67.5153 17.8977 69.3651 18.344 70.871 19.19L71.8506 17.4463C69.9853 16.3984 67.782 15.8977 65.2812 15.8977V17.8977ZM70.8747 19.1921C72.3925 20.0363 73.5467 21.2122 74.3553 22.7358L76.1219 21.7983C75.1313 19.9317 73.7003 18.4751 71.8469 17.4443L70.8747 19.1921ZM74.3564 22.7379C75.1665 24.2558 75.5881 26.0492 75.5881 28.1477H77.5881C77.5881 25.7766 77.11 23.6495 76.1209 21.7962L74.3564 22.7379ZM75.5881 28.1477C75.5881 30.2461 75.1666 32.0452 74.3553 33.5738L76.1219 34.5114C77.1099 32.6499 77.5881 30.519 77.5881 28.1477H75.5881ZM74.3564 33.5718C73.5478 35.0869 72.3923 36.265 70.871 37.1196L71.8506 38.8633C73.7005 37.824 75.1302 36.3696 76.1209 34.5135L74.3564 33.5718ZM70.8747 37.1176C69.368 37.9555 67.5169 38.3977 65.2812 38.3977V40.3977C67.7805 40.3977 69.9823 39.9024 71.8469 38.8654L70.8747 37.1176ZM65.3381 34.6023C66.2495 34.6023 67.065 34.287 67.7345 33.67L66.3791 32.1993C66.0827 32.4725 65.7524 32.6023 65.3381 32.6023V34.6023ZM67.7345 33.67C68.3784 33.0766 68.8292 32.2752 69.1309 31.3376L67.2271 30.7249C66.9985 31.4351 66.7011 31.9026 66.3791 32.1993L67.7345 33.67ZM69.1309 31.3376C69.4361 30.3893 69.5767 29.3007 69.5767 28.0909H67.5767C67.5767 29.1539 67.4522 30.0255 67.2271 30.7249L69.1309 31.3376ZM69.5767 28.0909C69.5767 26.8731 69.4364 25.7827 69.1298 24.841L67.2281 25.4602C67.4518 26.1473 67.5767 27.017 67.5767 28.0909H69.5767ZM69.1309 24.8442C68.8292 23.9067 68.3784 23.1052 67.7345 22.5118L66.3791 23.9825C66.7011 24.2793 66.9985 24.7467 67.2271 25.4569L69.1309 24.8442ZM67.7345 22.5118C67.065 21.8948 66.2495 21.5795 65.3381 21.5795V23.5795C65.7524 23.5795 66.0827 23.7094 66.3791 23.9825L67.7345 22.5118ZM65.3381 21.5795C64.4047 21.5795 63.5642 21.8839 62.8706 22.499L64.1976 23.9953C64.5078 23.7203 64.8699 23.5795 65.3381 23.5795V21.5795ZM62.8706 22.499C62.2012 23.0926 61.736 23.8984 61.4316 24.8442L63.3354 25.4569C63.5613 24.755 63.8632 24.2919 64.1976 23.9953L62.8706 22.499ZM61.4327 24.841C61.1261 25.7827 60.9858 26.8731 60.9858 28.0909H62.9858C62.9858 27.017 63.1107 26.1473 63.3344 25.4602L61.4327 24.841ZM60.9858 28.0909C60.9858 29.3007 61.1264 30.3893 61.4316 31.3376L63.3354 30.7249C63.1103 30.0255 62.9858 29.1539 62.9858 28.0909H60.9858ZM61.4316 31.3376C61.736 32.2835 62.2012 33.0892 62.8706 33.6828L64.1976 32.1865C63.8632 31.8899 63.5613 31.4268 63.3354 30.7249L61.4316 31.3376ZM62.8706 33.6828C63.5642 34.2979 64.4047 34.6023 65.3381 34.6023V32.6023C64.8699 32.6023 64.5078 32.4616 64.1976 32.1865L62.8706 33.6828ZM87.554 9.90909H88.554V8.90909H87.554V9.90909ZM87.554 39V40H88.554V39H87.554ZM79.6562 39H78.6562V40H79.6562V39ZM79.6562 9.90909V8.90909H78.6562V9.90909H79.6562ZM86.554 9.90909V39H88.554V9.90909H86.554ZM87.554 38H79.6562V40H87.554V38ZM80.6562 39V9.90909H78.6562V39H80.6562ZM79.6562 10.9091H87.554V8.90909H79.6562V10.9091ZM104.422 17.1818H105.422V16.1818H104.422V17.1818ZM104.422 22.8636V23.8636H105.422V22.8636H104.422ZM90.0469 22.8636H89.0469V23.8636H90.0469V22.8636ZM90.0469 17.1818V16.1818H89.0469V17.1818H90.0469ZM92.831 11.9545V10.9545H91.831V11.9545H92.831ZM100.672 11.9545H101.672V10.9545H100.672V11.9545ZM100.828 32.75L99.9337 33.1972L99.9379 33.2057L99.9423 33.214L100.828 32.75ZM101.311 33.2045L100.88 34.1067L100.896 34.1144L100.912 34.1216L101.311 33.2045ZM102.973 33.2614L102.799 32.2766L102.794 32.2775L102.973 33.2614ZM103.683 33.1193L104.663 32.9174L104.452 31.8963L103.441 32.1492L103.683 33.1193ZM104.82 38.6307L105.105 39.5892L105.984 39.3277L105.799 38.4287L104.82 38.6307ZM103.314 39.0142L103.088 38.04L103.085 38.0408L103.314 39.0142ZM101.013 39.3125L101.065 40.3111L101.066 40.3111L101.013 39.3125ZM96.4815 38.7585L96.1201 39.691L96.1264 39.6934L96.4815 38.7585ZM93.7259 36.5284L92.8712 37.0476L92.8712 37.0476L93.7259 36.5284ZM92.831 32.7216L93.831 32.734V32.7216H92.831ZM103.422 17.1818V22.8636H105.422V17.1818H103.422ZM104.422 21.8636H90.0469V23.8636H104.422V21.8636ZM91.0469 22.8636V17.1818H89.0469V22.8636H91.0469ZM90.0469 18.1818H104.422V16.1818H90.0469V18.1818ZM92.831 12.9545H100.672V10.9545H92.831V12.9545ZM99.6719 11.9545V31.983H101.672V11.9545H99.6719ZM99.6719 31.983C99.6719 32.3962 99.7424 32.8147 99.9337 33.1972L101.723 32.3028C101.705 32.2687 101.672 32.1758 101.672 31.983H99.6719ZM99.9423 33.214C100.154 33.6189 100.483 33.9168 100.88 34.1067L101.743 32.3024C101.718 32.2908 101.711 32.2834 101.712 32.2846C101.713 32.2848 101.713 32.2857 101.714 32.2868C101.715 32.2879 101.715 32.2879 101.714 32.286L99.9423 33.214ZM100.912 34.1216C101.298 34.2894 101.726 34.3466 102.149 34.3466V32.3466C101.89 32.3466 101.76 32.3091 101.71 32.2875L100.912 34.1216ZM102.149 34.3466C102.462 34.3466 102.799 34.3094 103.152 34.2452L102.794 32.2775C102.522 32.327 102.31 32.3466 102.149 32.3466V34.3466ZM103.147 34.2461C103.473 34.1886 103.738 34.1363 103.926 34.0895L103.441 32.1492C103.325 32.1781 103.117 32.2204 102.799 32.2766L103.147 34.2461ZM102.704 33.3213L103.84 38.8326L105.799 38.4287L104.663 32.9174L102.704 33.3213ZM104.535 37.6721C104.214 37.7676 103.735 37.89 103.088 38.0401L103.54 39.9884C104.2 39.8354 104.725 39.7021 105.105 39.5892L104.535 37.6721ZM103.085 38.0408C102.515 38.175 101.81 38.2687 100.96 38.3139L101.066 40.3111C101.996 40.2616 102.825 40.1565 103.543 39.9876L103.085 38.0408ZM100.96 38.3139C99.2505 38.4039 97.8889 38.2234 96.8366 37.8237L96.1264 39.6934C97.5173 40.2217 99.1766 40.4105 101.065 40.3111L100.96 38.3139ZM96.8429 37.8261C95.804 37.4234 95.0696 36.8143 94.5805 36.0092L92.8712 37.0476C93.6132 38.2691 94.7159 39.1467 96.1201 39.6909L96.8429 37.8261ZM94.5805 36.0092C94.0864 35.1959 93.8136 34.1242 93.8309 32.734L91.831 32.7092C91.8104 34.3683 92.1342 35.8344 92.8712 37.0476L94.5805 36.0092ZM93.831 32.7216V11.9545H91.831V32.7216H93.831Z" fill="black"/>
<path d="M17.9199 11H2.23999C1.64591 11 1.07616 11.236 0.656077 11.6561C0.235998 12.0762 0 12.6459 0 13.24V37.8799C0.0010709 38.0792 0.0546977 38.2748 0.155473 38.4469C0.256248 38.6189 0.400608 38.7614 0.573997 38.8598C0.7401 38.9547 0.928718 39.0031 1.11999 38.9998C1.32789 39.0002 1.53168 38.942 1.70799 38.8318L10.0799 33.5959L18.4379 38.8318C18.6104 38.9356 18.8069 38.9927 19.0082 38.9976C19.2094 39.0025 19.4085 38.955 19.5859 38.8598C19.7593 38.7614 19.9036 38.6189 20.0044 38.4469C20.1052 38.2748 20.1588 38.0792 20.1599 37.8799V13.24C20.1599 12.6459 19.9239 12.0762 19.5038 11.6561C19.0837 11.236 18.514 11 17.9199 11V11ZM10.6679 31.3279C10.491 31.2191 10.2876 31.161 10.0799 31.1599C9.8676 31.1591 9.65921 31.2173 9.47795 31.3279L2.23999 35.8639V31.7759L10.0799 26.8759L17.9199 31.7759V35.8639L10.6679 31.3279Z" fill="#F0ABFC"/>
</svg>
